<?xml version="1.0" encoding="UTF-8"?>
<svg xmlns="http://www.w3.org/2000/svg" xmlns:xlink="http://www.w3.org/1999/xlink" width="3001" height="3001" viewBox="0 0 3001 3001">
<path fill-rule="evenodd" fill="none" d="M 1 1 L 3001 1 L 3001 3001 L 1 3001 L 1 1 "/>
<path fill-rule="evenodd" fill="rgb(65.818787%, 65.818787%, 64.256287%)" fill-opacity="1" d="M 877.777344 1730.089844 C 914.042969 1679.191406 946.566406 1627.441406 956.230469 1609.238281 C 1187.589844 1678.230469 1385.5 1814.621094 1569.070312 1984.011719 C 1550.96875 2026.058594 1522.96875 2069.390625 1485.078125 2114.015625 C 1203.089844 1982.960938 1000.660156 1854.980469 877.777344 1730.089844 "/>
<path fill-rule="evenodd" fill="rgb(65.818787%, 65.818787%, 64.256287%)" fill-opacity="1" d="M 779.074219 1695.011719 C 802.210938 1639.101562 835.542969 1585.429688 879.074219 1534.011719 C 910.699219 1549.121094 940.035156 1567.121094 967.074219 1588.011719 C 944.996094 1633.640625 910.996094 1686.640625 865.074219 1747.019531 C 804.875 1714.648438 776.207031 1697.308594 779.074219 1695.011719 "/>
<path fill-rule="evenodd" fill="rgb(80.076599%, 80.46875%, 77.734375%)" fill-opacity="1" d="M 1084.601562 1895.691406 C 1111.191406 1840.929688 1144.621094 1782.140625 1184.890625 1719.308594 C 1280.269531 1769.300781 1346.621094 1808.109375 1383.949219 1835.738281 C 1354.601562 1903.398438 1315.589844 1959.699219 1266.910156 2004.648438 C 1208.628906 1973.339844 1147.859375 1937.019531 1084.601562 1895.691406 "/>
<path fill-rule="evenodd" fill="rgb(80.076599%, 80.46875%, 77.734375%)" fill-opacity="1" d="M 1307.429688 2026.34375 C 1364.070312 1966.75 1404.558594 1913.921875 1428.898438 1867.851562 C 1446.71875 1881.078125 1463.121094 1893.710938 1478.101562 1905.738281 C 1438.511719 1959.75 1402.03125 2010.445312 1368.660156 2057.820312 C 1350.519531 2048.734375 1330.109375 2038.242188 1307.429688 2026.34375 "/>
<path fill-rule="evenodd" fill="rgb(65.818787%, 65.818787%, 64.256287%)" fill-opacity="1" d="M 1581.859375 1957.308594 C 1611.128906 1968.691406 1639.980469 1982.089844 1654.699219 2005.710938 C 1627.808594 2069.972656 1590.679688 2130.441406 1533.570312 2182.511719 C 1508.921875 2173.894531 1482.75 2157.058594 1471.070312 2139.011719 C 1486.339844 2101.238281 1520.789062 2044.203125 1581.859375 1957.308594 "/>
<path fill-rule="evenodd" fill="rgb(12.939453%, 18.821716%, 21.946716%)" fill-opacity="1" d="M 717.570312 1575.511719 C 797.230469 1455.660156 883.894531 1332.988281 977.570312 1207.511719 C 1004.238281 1314.179688 1017.570312 1367.511719 1017.570312 1367.511719 C 937.867188 1560.550781 824.535156 1731.878906 677.570312 1881.511719 C 560.238281 1906.839844 501.570312 1919.511719 501.570312 1919.511719 C 574.296875 1783.25 646.296875 1668.578125 717.570312 1575.511719 "/>
<path fill-rule="evenodd" fill="rgb(49.414062%, 49.021912%, 47.459412%)" fill-opacity="1" d="M 717.570312 1575.511719 C 636.414062 1684.410156 564.414062 1799.078125 501.570312 1919.511719 C 356.285156 1826.71875 251.617188 1756.050781 187.570312 1707.511719 C 243.640625 1593.238281 314.308594 1471.898438 399.570312 1343.511719 C 490.578125 1205.839844 574.578125 1087.839844 651.570312 989.511719 C 780.574219 1060.089844 889.238281 1132.761719 977.570312 1207.511719 C 866.113281 1358.429688 779.449219 1481.089844 717.570312 1575.511719 "/>
<path fill-rule="evenodd" fill="rgb(58.396912%, 56.834412%, 55.664062%)" fill-opacity="1" d="M 392.347656 1354.421875 C 476.425781 1225.769531 562.835938 1104.128906 651.570312 989.511719 C 547.570312 1014.839844 495.570312 1027.511719 495.570312 1027.511719 C 417.3125 1119.101562 352.644531 1202.441406 301.570312 1277.511719 C 249.429688 1351.171875 202.761719 1434.511719 161.570312 1527.511719 C 169.105469 1586.238281 177.773438 1646.238281 187.570312 1707.511719 C 246.019531 1589.628906 314.277344 1471.929688 392.347656 1354.421875 "/>
<path fill="none" stroke-width="119.999" stroke-linecap="butt" stroke-linejoin="miter" stroke="rgb(39.988708%, 39.988708%, 39.988708%)" stroke-opacity="1" stroke-miterlimit="2.61313" d="M 3015.703125 17234.882812 C 3689.609375 16573.515625 5076.289062 15580.195312 7175.703125 14254.882812 " transform="matrix(0.1, 0, 0, -0.1, 0, 3001)"/>
<path fill-rule="evenodd" fill="rgb(12.939453%, 18.821716%, 21.946716%)" fill-opacity="1" d="M 1736.058594 2170.933594 C 1653.980469 2289.140625 1564.839844 2410.019531 1468.628906 2533.574219 C 1444.140625 2426.390625 1431.890625 2372.796875 1431.890625 2372.796875 C 1515.5 2181.414062 1632.289062 2012.421875 1782.269531 1865.808594 C 1900.089844 1842.871094 1959 1831.390625 1959 1831.390625 C 1883.519531 1966.148438 1809.210938 2079.332031 1736.058594 2170.933594 "/>
<path fill-rule="evenodd" fill="rgb(49.414062%, 49.021912%, 47.459412%)" fill-opacity="1" d="M 1736.058594 2170.933594 C 1819.410156 2063.707031 1893.71875 1950.53125 1959 1831.390625 C 2102.371094 1927.121094 2205.578125 1999.898438 2268.628906 2049.730469 C 2210.25 2162.839844 2137.128906 2282.714844 2049.28125 2409.347656 C 1955.488281 2545.136719 1869.109375 2661.40625 1790.140625 2758.15625 C 1662.589844 2684.964844 1555.429688 2610.105469 1468.628906 2533.574219 C 1583.128906 2384.953125 1672.269531 2264.074219 1736.058594 2170.933594 "/>
<path fill-rule="evenodd" fill="rgb(58.396912%, 56.834412%, 55.664062%)" fill-opacity="1" d="M 2056.71875 2398.582031 C 1970.039062 2525.5 1881.179688 2645.355469 1790.140625 2758.15625 C 1894.628906 2734.941406 1946.878906 2723.332031 1946.878906 2723.332031 C 2026.980469 2633.347656 2093.328125 2551.347656 2145.921875 2477.324219 C 2199.539062 2404.734375 2247.890625 2322.367188 2290.96875 2230.222656 C 2284.628906 2171.347656 2277.179688 2111.183594 2268.628906 2049.730469 C 2207.800781 2166.402344 2137.160156 2282.683594 2056.71875 2398.582031 "/>
<path fill="none" stroke-width="119.999" stroke-linecap="butt" stroke-linejoin="miter" stroke="rgb(39.988708%, 39.988708%, 39.988708%)" stroke-opacity="1" stroke-miterlimit="2.61313" d="M 21459.21875 5236.757812 C 20798.789062 5911.640625 19432.617188 6932.96875 17360.585938 8300.664062 " transform="matrix(0.1, 0, 0, -0.1, 0, 3001)"/>
<path fill-rule="evenodd" fill="rgb(69.726562%, 52.539062%, 43.138123%)" fill-opacity="1" d="M 865.074219 1747.019531 C 861.035156 1744.839844 856.792969 1742.550781 852.351562 1740.140625 C 803.042969 1800.890625 802.617188 1857.011719 851.066406 1908.511719 C 934.492188 1902.890625 1009.828125 1882.890625 1077.070312 1848.511719 C 1091.519531 1796.410156 1079.519531 1763.738281 1041.070312 1750.511719 C 962.070312 1760.410156 903.40625 1759.238281 865.074219 1747.019531 "/>
<path fill="none" stroke-width="2.16" stroke-linecap="butt" stroke-linejoin="miter" stroke="rgb(0%, 0%, 0%)" stroke-opacity="1" stroke-miterlimit="2.61313" d="M 8650.742188 12539.804688 C 8610.351562 12561.601562 8567.929688 12584.492188 8523.515625 12608.59375 C 8030.429688 12001.09375 8026.171875 11439.882812 8510.664062 10924.882812 C 9344.921875 10981.09375 10098.28125 11181.09375 10770.703125 11524.882812 C 10915.195312 12045.898438 10795.195312 12372.617188 10410.703125 12504.882812 C 9620.703125 12405.898438 9034.0625 12417.617188 8650.742188 12539.804688 Z M 8650.742188 12539.804688 " transform="matrix(0.1, 0, 0, -0.1, 0, 3001)"/>
<path fill-rule="evenodd" fill="rgb(69.726562%, 52.539062%, 43.138123%)" fill-opacity="1" d="M 1069.070312 2010.511719 C 1041.570312 2022.957031 1014.898438 2026.289062 989.066406 2020.511719 C 935.175781 2004.867188 919.660156 1963.339844 942.511719 1895.910156 C 1015.890625 1860.28125 1086.078125 1811.148438 1153.070312 1748.511719 C 1201.800781 1745.738281 1234.46875 1762.398438 1251.070312 1798.511719 C 1209.589844 1911.960938 1148.921875 1982.628906 1069.070312 2010.511719 "/>
<path fill="none" stroke-width="2.16" stroke-linecap="butt" stroke-linejoin="miter" stroke="rgb(0%, 0%, 0%)" stroke-opacity="1" stroke-miterlimit="2.61313" d="M 10690.703125 9904.882812 C 10415.703125 9780.429688 10148.984375 9747.109375 9890.664062 9804.882812 C 9351.757812 9961.328125 9196.601562 10376.601562 9425.117188 11050.898438 C 10158.90625 11407.1875 10860.78125 11898.515625 11530.703125 12524.882812 C 12018.007812 12552.617188 12344.6875 12386.015625 12510.703125 12024.882812 C 12095.898438 10890.390625 11489.21875 10183.710938 10690.703125 9904.882812 Z M 10690.703125 9904.882812 " transform="matrix(0.1, 0, 0, -0.1, 0, 3001)"/>
<path fill-rule="evenodd" fill="rgb(69.726562%, 52.539062%, 43.138123%)" fill-opacity="1" d="M 1069.070312 2010.511719 C 1161.269531 1967.589844 1221.941406 1896.921875 1251.070312 1798.511719 C 1310.53125 1777.839844 1351.449219 1797.628906 1373.808594 1857.859375 C 1324.441406 1946.710938 1264.191406 2020.261719 1193.070312 2078.511719 C 1105.371094 2105.589844 1064.03125 2082.921875 1069.070312 2010.511719 "/>
<path fill="none" stroke-width="2.16" stroke-linecap="butt" stroke-linejoin="miter" stroke="rgb(0%, 0%, 0%)" stroke-opacity="1" stroke-miterlimit="2.61313" d="M 10690.703125 9904.882812 C 11612.695312 10334.101562 12219.414062 11040.78125 12510.703125 12024.882812 C 13105.3125 12231.601562 13514.492188 12033.710938 13738.085938 11431.40625 C 13244.414062 10542.890625 12641.914062 9807.382812 11930.703125 9224.882812 C 11053.710938 8954.101562 10640.3125 9180.78125 10690.703125 9904.882812 Z M 10690.703125 9904.882812 " transform="matrix(0.1, 0, 0, -0.1, 0, 3001)"/>
<path fill-rule="evenodd" fill="rgb(69.726562%, 52.539062%, 43.138123%)" fill-opacity="1" d="M 1193.070312 2078.511719 C 1262.078125 2018.628906 1314.328125 1958.621094 1349.820312 1898.480469 C 1403.46875 1907.121094 1423.21875 1935.800781 1409.070312 1984.511719 C 1382.640625 2035.296875 1344.300781 2080.296875 1294.070312 2119.507812 C 1241.351562 2141.113281 1204.480469 2128.386719 1183.460938 2081.328125 C 1189.871094 2079.449219 1193.070312 2078.511719 1193.070312 2078.511719 "/>
<path fill="none" stroke-width="2.16" stroke-linecap="butt" stroke-linejoin="miter" stroke="rgb(0%, 0%, 0%)" stroke-opacity="1" stroke-miterlimit="2.61313" d="M 11930.703125 9224.882812 C 12620.78125 9823.710938 13143.28125 10423.789062 13498.203125 11025.195312 C 14034.6875 10938.789062 14232.1875 10651.992188 14090.703125 10164.882812 C 13826.40625 9657.03125 13443.007812 9207.03125 12940.703125 8814.921875 C 12413.515625 8598.867188 12044.804688 8726.132812 11834.609375 9196.71875 C 11898.710938 9215.507812 11930.703125 9224.882812 11930.703125 9224.882812 Z M 11930.703125 9224.882812 " transform="matrix(0.1, 0, 0, -0.1, 0, 3001)"/>
<path fill-rule="evenodd" fill="rgb(92.96875%, 89.84375%, 87.109375%)" fill-opacity="1" d="M 1349.570312 1914.011719 C 1379.949219 1910.011719 1397.121094 1923.511719 1401.070312 1954.511719 C 1390.699219 1982.480469 1374.03125 2003.3125 1351.070312 2017.007812 C 1328.910156 2016.972656 1315.410156 2008.304688 1310.570312 1991.011719 C 1316.039062 1961.050781 1329.039062 1935.378906 1349.570312 1914.011719 "/>
<path fill-rule="evenodd" fill="rgb(92.96875%, 89.84375%, 87.109375%)" fill-opacity="1" d="M 1289.570312 1919.511719 C 1319.171875 1896.378906 1339.339844 1873.710938 1350.070312 1851.511719 C 1343.941406 1812.621094 1318.769531 1795.449219 1274.570312 1800.011719 C 1254.109375 1838.710938 1243.609375 1868.210938 1243.070312 1888.511719 C 1251.851562 1909.929688 1267.351562 1920.261719 1289.570312 1919.511719 "/>
<path fill-rule="evenodd" fill="rgb(92.96875%, 89.84375%, 87.109375%)" fill-opacity="1" d="M 1160.070312 1754.011719 C 1138.269531 1780.519531 1127.441406 1807.191406 1127.570312 1834.011719 C 1137.109375 1846.699219 1154.941406 1855.03125 1181.070312 1859.011719 C 1201.359375 1847.339844 1221.03125 1827 1240.070312 1798.011719 C 1224.429688 1766.128906 1197.761719 1751.460938 1160.070312 1754.011719 "/>
<path fill-rule="evenodd" fill="rgb(0%, 0%, 0%)" fill-opacity="1" d="M 1152.070312 1619.511719 C 1123.429688 1634.421875 1100.601562 1652.671875 1083.558594 1674.230469 C 1222.949219 1733.648438 1339.941406 1799.878906 1434.539062 1872.910156 C 1363.558594 1776.640625 1328.070312 1728.511719 1328.070312 1728.511719 C 1232.761719 1726.558594 1174.089844 1690.21875 1152.070312 1619.511719 "/>
<path fill-rule="evenodd" fill="rgb(69.726562%, 52.539062%, 43.138123%)" fill-opacity="1" d="M 2089.070312 1457.511719 C 1929.75 1575.789062 1783.421875 1681.789062 1650.070312 1775.511719 C 1639.28125 1838.890625 1605.25 1902.011719 1547.96875 1964.851562 C 1528.808594 1947.589844 1505.519531 1927.890625 1478.101562 1905.738281 C 1389.601562 1842.300781 1336.589844 1787.21875 1319.070312 1740.511719 C 1207.160156 1755.449219 1149.488281 1718.78125 1146.070312 1630.511719 C 1127.648438 1653.160156 1106.808594 1667.738281 1083.558594 1674.230469 C 1111.730469 1753.378906 1111.230469 1816.140625 1082.070312 1862.511719 C 1010.210938 1917.199219 963.539062 1895.53125 942.066406 1797.511719 C 919.550781 1721.660156 921.085938 1664.640625 946.667969 1626.441406 C 983.835938 1587.199219 1012.300781 1542.890625 1032.070312 1493.511719 C 1055.660156 1453.449219 1148.660156 1447.449219 1311.070312 1475.511719 C 1361.019531 1479.488281 1404.691406 1466.488281 1442.070312 1436.511719 C 1589.53125 1297.320312 1706.53125 1182.320312 1793.070312 1091.511719 C 1858.859375 902.371094 1989.53125 695.039062 2185.070312 469.511719 C 2271.820312 208.480469 2326.621094 68.96875 2391.871094 1 C 2805.199219 1 2995.46875 1.25 3000.800781 1.25 C 2910.328125 353.710938 2803.929688 618.300781 2601.070312 845.511719 C 2509.539062 1102.289062 2338.878906 1306.289062 2089.070312 1457.511719 "/>
<path fill="none" stroke-width="2.16" stroke-linecap="butt" stroke-linejoin="miter" stroke="rgb(0%, 0%, 0%)" stroke-opacity="1" stroke-miterlimit="2.61313" d="M 20890.703125 15434.882812 C 19297.5 14252.109375 17834.21875 13192.109375 16500.703125 12254.882812 C 16392.8125 11621.09375 16052.5 10989.882812 15479.6875 10361.484375 C 15288.085938 10534.101562 15055.195312 10731.09375 14781.015625 10952.617188 C 13896.015625 11586.992188 13365.898438 12137.8125 13190.703125 12604.882812 C 12071.601562 12455.507812 11494.882812 12822.1875 11460.703125 13704.882812 C 11276.484375 13478.398438 11068.085938 13332.617188 10835.585938 13267.695312 C 11117.304688 12476.210938 11112.304688 11848.59375 10820.703125 11384.882812 C 10102.109375 10838.007812 9635.390625 11054.6875 9420.664062 12034.882812 C 9195.507812 12793.398438 9210.859375 13363.59375 9466.679688 13745.585938 C 9838.359375 14138.007812 10123.007812 14581.09375 10320.703125 15074.882812 C 10556.601562 15475.507812 11486.601562 15535.507812 13110.703125 15254.882812 C 13610.195312 15215.117188 14046.914062 15345.117188 14420.703125 15644.882812 C 15895.3125 17036.796875 17065.3125 18186.796875 17930.703125 19094.882812 C 18588.59375 20986.289062 19895.3125 23059.609375 21850.703125 25314.882812 C 22718.203125 27925.195312 23266.210938 29320.3125 23918.710938 30000 C 28051.992188 30000 29954.6875 29997.5 30008.007812 29997.5 C 29103.28125 26472.890625 28039.296875 23826.992188 26010.703125 21554.882812 C 25095.390625 18987.109375 23388.789062 16947.109375 20890.703125 15434.882812 Z M 20890.703125 15434.882812 " transform="matrix(0.1, 0, 0, -0.1, 0, 3001)"/>
<path fill-rule="evenodd" fill="rgb(0%, 0%, 0%)" fill-opacity="1" d="M 3001 1 C 2636.328125 1 2408.75 1.019531 2322.75 1.019531 C 2308.351562 43.710938 2267.011719 133.539062 2238.75 182.511719 C 2390.949219 380.308594 2656.261719 428.308594 2970.691406 262.511719 C 2997.398438 138.851562 3001 1 3001 1 "/>
<path fill-rule="evenodd" fill="rgb(92.96875%, 89.84375%, 87.109375%)" fill-opacity="1" d="M 981.566406 1860.011719 C 967.996094 1847.351562 962.328125 1818.019531 964.566406 1772.011719 C 994.65625 1754.140625 1024.320312 1751.46875 1053.570312 1764.011719 C 1064.011719 1791.328125 1066.671875 1817 1061.570312 1841.011719 C 1034.578125 1865.890625 1007.921875 1872.21875 981.566406 1860.011719 "/>
<path fill="none" stroke-width="60.0009" stroke-linecap="butt" stroke-linejoin="miter" stroke="rgb(49.021912%, 32.93457%, 24.31488%)" stroke-opacity="1" stroke-miterlimit="2.61313" d="M 14260.3125 14430.898438 C 14451.210938 13890.78125 14271.210938 13240.78125 13720.3125 12480.898438 " transform="matrix(0.1, 0, 0, -0.1, 0, 3001)"/>
<path fill="none" stroke-width="60.0009" stroke-linecap="butt" stroke-linejoin="miter" stroke="rgb(49.021912%, 32.93457%, 24.31488%)" stroke-opacity="1" stroke-miterlimit="2.61313" d="M 14790.3125 13760.898438 C 14824.609375 13272.109375 14601.210938 12765.507812 14120.3125 12240.898438 " transform="matrix(0.1, 0, 0, -0.1, 0, 3001)"/>
<path fill="none" stroke-width="60.0009" stroke-linecap="butt" stroke-linejoin="miter" stroke="rgb(49.021912%, 32.93457%, 24.31488%)" stroke-opacity="1" stroke-miterlimit="2.61313" d="M 22450.3125 20460.898438 C 20553.59375 18028.710938 18413.59375 16188.710938 16030.3125 14940.898438 " transform="matrix(0.1, 0, 0, -0.1, 0, 3001)"/>
<path fill="none" stroke-width="60.0009" stroke-linecap="butt" stroke-linejoin="miter" stroke="rgb(49.021912%, 32.93457%, 24.31488%)" stroke-opacity="1" stroke-miterlimit="2.61313" d="M 24150.3125 21060.898438 C 22544.21875 18757.382812 20690.78125 16750.78125 18590.3125 15040.898438 " transform="matrix(0.1, 0, 0, -0.1, 0, 3001)"/>
<path fill="none" stroke-width="60.0009" stroke-linecap="butt" stroke-linejoin="miter" stroke="rgb(49.021912%, 32.93457%, 24.31488%)" stroke-opacity="1" stroke-miterlimit="2.61313" d="M 15870.3125 14000.898438 C 16991.71875 14236.484375 17771.71875 14683.085938 18210.3125 15340.898438 " transform="matrix(0.1, 0, 0, -0.1, 0, 3001)"/>
<path fill="none" stroke-width="60.0009" stroke-linecap="butt" stroke-linejoin="miter" stroke="rgb(49.021912%, 32.93457%, 24.31488%)" stroke-opacity="1" stroke-miterlimit="2.61313" d="M 26690.3125 24400.898438 C 25638.007812 22925.703125 24344.609375 22365.703125 22810.3125 22720.898438 C 21056.015625 22108.007812 19456.015625 20854.6875 18010.3125 18960.898438 " transform="matrix(0.1, 0, 0, -0.1, 0, 3001)"/>
<path fill="none" stroke-width="60.0009" stroke-linecap="butt" stroke-linejoin="miter" stroke="rgb(49.021912%, 32.93457%, 24.31488%)" stroke-opacity="1" stroke-miterlimit="2.61313" d="M 24010.3125 20320.898438 C 23480.3125 18360 22426.914062 16946.601562 20850.3125 16080.898438 " transform="matrix(0.1, 0, 0, -0.1, 0, 3001)"/>
<path fill="none" stroke-width="60.0009" stroke-linecap="butt" stroke-linejoin="miter" stroke="rgb(49.021912%, 32.93457%, 24.31488%)" stroke-opacity="1" stroke-miterlimit="2.61313" d="M 23230.3125 27000.898438 C 22997.1875 24164.6875 24363.90625 23991.40625 27050.3125 25200.898438 " transform="matrix(0.1, 0, 0, -0.1, 0, 3001)"/>
</svg>
